<?xml version="1.0" encoding="UTF-8" standalone="no"?>
<svg
   viewBox="0 0 448 512"
   version="1.1"
   id="svg4"
   sodipodi:docname="database-solid.svg"
   width="448"
   height="512"
   xmlns:inkscape="http://www.inkscape.org/namespaces/inkscape"
   xmlns:sodipodi="http://sodipodi.sourceforge.net/DTD/sodipodi-0.dtd"
   xmlns="http://www.w3.org/2000/svg"
   xmlns:svg="http://www.w3.org/2000/svg">
  <defs
     id="defs8" />
  <sodipodi:namedview
     id="namedview6"
     pagecolor="#ffffff"
     bordercolor="#000000"
     borderopacity="0.25"
     inkscape:showpageshadow="2"
     inkscape:pageopacity="0.0"
     inkscape:pagecheckerboard="0"
     inkscape:deskcolor="#d1d1d1"
     showgrid="false" />
  <!-- Font Awesome Pro 5.15.4 by @fontawesome - https://fontawesome.com License - https://fontawesome.com/license (Commercial License) -->
  <path
     d="m 448,73.143 v 45.714 C 448,159.143 347.667,192 224,192 100.333,192 0,159.143 0,118.857 V 73.143 C 0,32.857 100.333,0 224,0 347.667,0 448,32.857 448,73.143 Z M 448,176 V 278.857 C 448,319.143 347.667,352 224,352 100.333,352 0,319.143 0,278.857 V 176 c 48.125,33.143 136.208,48.572 224,48.572 87.792,0 175.874,-15.429 224,-48.572 z m 0,160 V 438.857 C 448,479.143 347.667,512 224,512 100.333,512 0,479.143 0,438.857 V 336 c 48.125,33.143 136.208,48.572 224,48.572 87.792,0 175.874,-15.429 224,-48.572 z"
     id="path2"
     style="fill:#ffb600;fill-opacity:1" />
</svg>
