<?xml version="1.0" encoding="UTF-8" standalone="no"?>
<svg
   viewBox="0 0 512 412.94"
   version="1.1"
   id="svg4"
   sodipodi:docname="git.svg"
   width="512"
   height="412.94"
   xmlns:inkscape="http://www.inkscape.org/namespaces/inkscape"
   xmlns:sodipodi="http://sodipodi.sourceforge.net/DTD/sodipodi-0.dtd"
   xmlns="http://www.w3.org/2000/svg"
   xmlns:svg="http://www.w3.org/2000/svg">
  <defs
     id="defs8" />
  <sodipodi:namedview
     id="namedview6"
     pagecolor="#ffffff"
     bordercolor="#000000"
     borderopacity="0.25"
     inkscape:showpageshadow="2"
     inkscape:pageopacity="0.0"
     inkscape:pagecheckerboard="0"
     inkscape:deskcolor="#d1d1d1"
     showgrid="false" />
  <!--! Font Awesome Free 6.1.2 by @fontawesome - https://fontawesome.com License - https://fontawesome.com/license/free (Icons: CC BY 4.0, Fonts: SIL OFL 1.1, Code: MIT License) Copyright 2022 Fonticons, Inc. -->
  <path
     d="M 216.29,108.86 H 137 C 97,98.37 6.51,101.1 6.51,183.65 c 0,30.09 15,51.23 35,61 -25.1,23 -37,33.85 -37,49.21 0,11 4.47,21.14 17.89,26.81 C 8.13,334.08 0,343.82 0,362.12 c 0,32.11 28.05,50.82 101.63,50.82 70.75,0 111.79,-26.42 111.79,-73.18 0,-58.66 -45.16,-56.5 -151.63,-63 l 13.43,-21.55 c 27.27,7.58 118.7,10 118.7,-67.89 0,-18.7 -7.73,-31.71 -15,-41.07 l 37.41,-2.84 z m -63.42,241.9 c 0,32.06 -104.89,32.1 -104.89,2.43 0,-8.14 5.27,-15 10.57,-21.54 77.71,5.3 94.32,3.37 94.32,19.11 z M 102.06,216.18 c -52.8,0 -50.46,-71.16 1.2,-71.16 49.54,0 50.82,71.16 -1.2,71.16 z m 133.3,100.51 v -32.1 c 26.75,-3.66 27.24,-2 27.24,-11 V 154.08 c 0,-8.5 -2.05,-7.38 -27.24,-16.26 l 4.47,-32.92 H 324 v 168.71 c 0,6.51 0.4,7.32 6.51,8.14 l 20.73,2.84 v 32.1 z M 287.81,72.38 c -23.17,0 -36.59,-13.43 -36.59,-36.61 0,-23.18 13.42,-35.77 36.59,-35.77 23.58,0 37,12.62 37,35.77 0,23.15 -13.42,36.61 -37,36.61 z M 512,300.93 c -17.49,8.53 -43.1,16.26 -66.28,16.26 -48.38,0 -66.67,-19.5 -66.67,-65.46 V 145.22 c 0,-5.42 1.05,-4.06 -31.71,-4.06 v -36.19 c 35.78,-4.07 50,-22 54.47,-66.27 h 38.63 c 0,65.83 -1.34,61.81 3.26,61.81 H 501 v 40.65 h -60.56 v 97.15 c 0,6.92 -4.92,51.41 60.57,26.84 z"
     id="path2"
     style="fill:#ff3938;fill-opacity:1" />
</svg>
