<?xml version="1.0" encoding="UTF-8" standalone="no"?>
<svg
   viewBox="0 0 511.84769 493.02722"
   version="1.1"
   id="svg4"
   sodipodi:docname="gitlab.svg"
   width="511.84769"
   height="493.02722"
   xmlns:inkscape="http://www.inkscape.org/namespaces/inkscape"
   xmlns:sodipodi="http://sodipodi.sourceforge.net/DTD/sodipodi-0.dtd"
   xmlns="http://www.w3.org/2000/svg"
   xmlns:svg="http://www.w3.org/2000/svg">
  <defs
     id="defs8" />
  <sodipodi:namedview
     id="namedview6"
     pagecolor="#ffffff"
     bordercolor="#000000"
     borderopacity="0.25"
     inkscape:showpageshadow="2"
     inkscape:pageopacity="0.0"
     inkscape:pagecheckerboard="0"
     inkscape:deskcolor="#d1d1d1"
     showgrid="false" />
  <!--! Font Awesome Free 6.1.2 by @fontawesome - https://fontawesome.com License - https://fontawesome.com/license/free (Icons: CC BY 4.0, Fonts: SIL OFL 1.1, Code: MIT License) Copyright 2022 Fonticons, Inc. -->
  <path
     d="m 503.50003,195.12724 -0.7,-1.8 -69.7,-181.780004 c -1.4,-3.57 -3.9,-6.59 -7.2,-8.64 -2.4,-1.55 -5.1,-2.51500005 -8,-2.81000005 -2.9,-0.295 -5.7,0.083 -8.4,1.11000005 -2.7,1.02 -5.1,2.66 -7.1,4.78 -1.9,2.12 -3.3,4.67 -4.1,7.44 l -47,144.000004 h -190.5 l -47.1,-144.000004 c -0.8,-2.77 -2.2,-5.31 -4.1,-7.43 -2,-2.12 -4.4,-3.75 -7.1,-4.77 -2.640001,-1.02500005 -5.520001,-1.40500005 -8.380001,-1.11300005 -2.86,0.291 -5.61,1.24300005 -8.04,2.79300005 -3.24,2.05 -5.75,5.07 -7.16,8.64 L 9.2670287,193.32724 l -0.724,1.8 c -10.027,26.2 -11.263,55 -3.52,82 7.7470003,26.9 24.0470003,50.7 46.4470003,67.6 l 0.27,0.2 0.59,0.4 105.970001,79.5 52.6,39.7 32,24.2 c 3.7,1.9 8.3,4.3 13,4.3 4.7,0 9.3,-2.4 13,-4.3 l 32,-24.2 52.6,-39.7 106.7,-79.9 0.3,-0.3 c 22.4,-16.9 38.7,-40.6 45.6,-67.5 8.6,-27 7.4,-55.8 -2.6,-82 z"
     id="path2"
     style="fill:#ff5b00;fill-opacity:1" />
</svg>
