<?xml version="1.0" encoding="UTF-8" standalone="no"?>
<svg
   viewBox="0 0 446.79999 503.95001"
   version="1.1"
   id="svg4"
   sodipodi:docname="node-js.svg"
   width="446.79999"
   height="503.95001"
   xmlns:inkscape="http://www.inkscape.org/namespaces/inkscape"
   xmlns:sodipodi="http://sodipodi.sourceforge.net/DTD/sodipodi-0.dtd"
   xmlns="http://www.w3.org/2000/svg"
   xmlns:svg="http://www.w3.org/2000/svg">
  <defs
     id="defs8" />
  <sodipodi:namedview
     id="namedview6"
     pagecolor="#ffffff"
     bordercolor="#000000"
     borderopacity="0.25"
     inkscape:showpageshadow="2"
     inkscape:pageopacity="0.0"
     inkscape:pagecheckerboard="0"
     inkscape:deskcolor="#d1d1d1"
     showgrid="false" />
  <!--! Font Awesome Free 6.1.2 by @fontawesome - https://fontawesome.com License - https://fontawesome.com/license/free (Icons: CC BY 4.0, Fonts: SIL OFL 1.1, Code: MIT License) Copyright 2022 Fonticons, Inc. -->
  <path
     d="m 223.3,503.95 c -6.7,0 -13.5,-1.8 -19.4,-5.2 l -61.7,-36.5 c -9.2,-5.2 -4.7,-7 -1.7,-8 12.3,-4.3 14.8,-5.2 27.9,-12.7 1.4,-0.8 3.2,-0.5 4.6,0.4 l 47.4,28.1 c 1.7,1 4.1,1 5.7,0 l 184.7,-106.6 c 1.7,-1 2.8,-3 2.8,-5 v -213.2 c 0,-2.1 -1.1,-4 -2.9,-5.1 L 226.1,33.65 c -1.7,-1 -4,-1 -5.7,0 L 35.9,140.25 c -1.8,1 -2.9,3 -2.9,5.1 v 213.1 c 0,2 1.1,4 2.9,4.9 l 50.6,29.2 c 27.5,13.7 44.3,-2.4 44.3,-18.7 v -210.4 c 0,-3 2.4,-5.3 5.4,-5.3 h 23.4 c 2.9,0 5.4,2.3 5.4,5.3 v 210.5 c 0,36.6 -20,57.6 -54.7,57.6 -10.7,0 -19.1,0 -42.5,-11.6 L 19.4,392.05 C 7.4,385.15 0,372.25 0,358.35 v -213.1 c 0,-13.8 7.4,-26.8 19.4,-33.7 L 203.9,4.95 c 11.7,-6.6 27.2,-6.6 38.8,0 l 184.7,106.7 c 12,6.9 19.4,19.8 19.4,33.7 v 213.1 c 0,13.8 -7.4,26.7 -19.4,33.7 l -184.7,106.6 c -5.9,3.4 -12.6,5.2 -19.4,5.2 z m 149.1,-210.1 c 0,-39.9 -27,-50.5 -83.7,-58 -57.4,-7.6 -63.2,-11.5 -63.2,-24.9 0,-11.1 4.9,-25.9 47.4,-25.9 37.9,0 51.9,8.2 57.7,33.8 0.5,2.4 2.7,4.2 5.2,4.2 h 24 c 1.5,0 2.9,-0.6 3.9,-1.7 1,-1.1 1.5,-2.6 1.4,-4.1 -3.7,-44.1 -33,-64.6 -92.2,-64.6 -52.7,0 -84.1,22.2 -84.1,59.5 0,40.4 31.3,51.6 81.8,56.6 60.5,5.9 65.2,14.8 65.2,26.7 0,20.6 -16.6,29.4 -55.5,29.4 -48.9,0 -59.6,-12.3 -63.2,-36.6 -0.4,-2.6 -2.6,-4.5 -5.3,-4.5 h -23.9 c -3,0 -5.3,2.4 -5.3,5.3 0,31.1 16.9,68.2 97.8,68.2 58.4,-0.1 92,-23.2 92,-63.4 z"
     id="path2"
     style="fill:#44b400;fill-opacity:1" />
</svg>
