<?xml version="1.0" encoding="UTF-8" standalone="no"?>
<svg
   viewBox="0 0 640 336.60001"
   version="1.1"
   id="svg4"
   sodipodi:docname="php.svg"
   width="640"
   height="336.60001"
   xmlns:inkscape="http://www.inkscape.org/namespaces/inkscape"
   xmlns:sodipodi="http://sodipodi.sourceforge.net/DTD/sodipodi-0.dtd"
   xmlns="http://www.w3.org/2000/svg"
   xmlns:svg="http://www.w3.org/2000/svg">
  <defs
     id="defs8" />
  <sodipodi:namedview
     id="namedview6"
     pagecolor="#ffffff"
     bordercolor="#000000"
     borderopacity="0.25"
     inkscape:showpageshadow="2"
     inkscape:pageopacity="0.0"
     inkscape:pagecheckerboard="0"
     inkscape:deskcolor="#d1d1d1"
     showgrid="false" />
  <!--! Font Awesome Free 6.1.2 by @fontawesome - https://fontawesome.com License - https://fontawesome.com/license/free (Icons: CC BY 4.0, Fonts: SIL OFL 1.1, Code: MIT License) Copyright 2022 Fonticons, Inc. -->
  <path
     d="M 320,16.8 C 491.4,16.8 623.2,89 623.2,168.3 623.2,247.6 491.3,319.8 320,319.8 148.6,319.8 16.8,247.6 16.8,168.3 16.8,89 148.7,16.8 320,16.8 M 320,0 C 143.3,0 0,75.3 0,168.3 c 0,93 143.3,168.3 320,168.3 176.7,0 320,-75.3 320,-168.3 C 640,75.3 496.7,0 320,0 Z M 218.2,154.8 c -7.9,40.5 -35.8,36.3 -70.1,36.3 l 13.7,-70.6 c 38,0 63.8,-4.1 56.4,34.3 z M 97.4,262.6 h 36.7 l 8.7,-44.8 c 41.1,0 66.6,3 90.2,-19.1 26.1,-24 32.9,-66.7 14.3,-88.1 C 237.6,99.4 222,93.9 200.8,93.9 H 130.1 Z M 283.1,49 h 36.5 l -8.7,44.8 c 31.5,0 60.7,-2.3 74.8,10.7 14.8,13.6 7.7,31 -8.3,113.1 h -37 c 15.4,-79.4 18.3,-86 12.7,-92 -5.4,-5.8 -17.7,-4.6 -47.4,-4.6 l -18.8,96.6 H 250.4 Z M 505,154.8 c -8,41.1 -36.7,36.3 -70.1,36.3 l 13.7,-70.6 c 38.2,0 63.8,-4.1 56.4,34.3 z M 384.2,262.6 H 421 l 8.7,-44.8 c 43.2,0 67.1,2.5 90.2,-19.1 26.1,-24 32.9,-66.7 14.3,-88.1 C 524.5,99.4 508.9,93.9 487.7,93.9 H 417 Z"
     id="path2"
     style="fill:#0065ff;fill-opacity:1" />
</svg>
