<?xml version="1.0" encoding="UTF-8" standalone="no"?>
<svg
   viewBox="0 0 639.99255 480.03912"
   version="1.1"
   id="svg4"
   sodipodi:docname="sass.svg"
   width="639.99255"
   height="480.03912"
   xmlns:inkscape="http://www.inkscape.org/namespaces/inkscape"
   xmlns:sodipodi="http://sodipodi.sourceforge.net/DTD/sodipodi-0.dtd"
   xmlns="http://www.w3.org/2000/svg"
   xmlns:svg="http://www.w3.org/2000/svg">
  <defs
     id="defs8" />
  <sodipodi:namedview
     id="namedview6"
     pagecolor="#ffffff"
     bordercolor="#000000"
     borderopacity="0.25"
     inkscape:showpageshadow="2"
     inkscape:pageopacity="0.0"
     inkscape:pagecheckerboard="0"
     inkscape:deskcolor="#d1d1d1"
     showgrid="false" />
  <!--! Font Awesome Free 6.1.2 by @fontawesome - https://fontawesome.com License - https://fontawesome.com/license/free (Icons: CC BY 4.0, Fonts: SIL OFL 1.1, Code: MIT License) Copyright 2022 Fonticons, Inc. -->
  <path
     d="m 301.83644,362.91576 c -0.3,0.6 -0.6,1.08 0,0 z m 249.13,-87 a 131.16,131.16 0 0 0 -58,13.5 c -5.9,-11.9 -12,-22.3 -13,-30.1 -1.2,-9.1 -2.5,-14.5 -1.1,-25.3 1.4,-10.8 7.7,-26.1 7.6,-27.2 -0.1,-1.1 -1.4,-6.6 -14.3,-6.7 -12.9,-0.1 -24,2.5 -25.29,5.9 a 122.83,122.83 0 0 0 -5.3,19.1 c -2.3,11.7 -25.79,53.5 -39.09,75.3 -4.4,-8.5 -8.1,-16 -8.9,-22 -1.2,-9.1 -2.5,-14.5 -1.1,-25.3 1.4,-10.8 7.7,-26.1 7.6,-27.2 -0.1,-1.1 -1.4,-6.6 -14.29,-6.7 -12.89,-0.1 -24,2.5 -25.3,5.9 -1.3,3.4 -2.7,11.4 -5.3,19.1 -2.6,7.7 -33.89,77.3 -42.08,95.4 -4.2,9.2 -7.8,16.6 -10.4,21.6 -0.4,0.8 -0.7,1.3 -0.9,1.7 0.3,-0.5 0.5,-1 0.5,-0.8 -2.2,4.3 -3.5,6.7 -3.5,6.7 v 0.1 c -1.7,3.2 -3.6,6.1 -4.5,6.1 -0.6,0 -1.9,-8.4 0.3,-19.9 4.7,-24.2 15.8,-61.8 15.7,-63.1 -0.1,-0.7 2.1,-7.2 -7.3,-10.7 -9.1,-3.3 -12.4,2.2 -13.2,2.2 -0.8,0 -1.4,2 -1.4,2 0,0 10.1,-42.4 -19.39,-42.4 -18.4,0 -44,20.2 -56.58,38.5 -7.9,4.3 -25,13.6 -43,23.5 -6.9,3.8 -14,7.7 -20.7,11.4 -0.5,-0.5 -0.9,-1 -1.4,-1.5 -35.79,-38.2 -101.870003,-65.2 -99.070003,-116.5 1,-18.7 7.5,-67.8 127.070003,-127.400003 98,-48.8 176.35,-35.4 189.84,-5.6 19.4,42.500003 -41.89,121.600003 -143.66,133.000003 -38.79,4.3 -59.18,-10.7 -64.28,-16.3 -5.3,-5.9 -6.1,-6.2 -8.1,-5.1 -3.3,1.8 -1.2,7 0,10.1 3,7.9 15.5,21.9 36.79,28.9 18.7,6.1 64.18,9.5 119.17,-11.8 61.78,-23.8 109.87,-90.1 95.77,-145.600003 -14.36,-56.4000005 -107.88,-74.9 -196.31,-43.5 -52.69,18.7 -109.670003,48.1 -150.660003,86.400003 -48.69,45.6 -56.48,85.3 -53.28,101.9 11.39,58.9 92.57,97.3 125.060003,125.7 -1.6,0.9 -3.1,1.7 -4.5,2.5 -16.29,8.1 -78.180003,40.5 -93.670003,74.7 -17.5,38.8 2.9,66.6 16.29,70.4 41.79,11.6 84.580003,-9.3 107.570003,-43.6 22.99,-34.3 20.2,-79.1 9.6,-99.5 -0.1,-0.3 -0.3,-0.5 -0.4,-0.8 4.2,-2.5 8.5,-5 12.8,-7.5 8.29,-4.9 16.39,-9.4 23.49,-13.3 -4,10.8 -6.9,23.8 -8.4,42.6 -1.8,22 7.3,50.5 19.1,61.7 5.2,4.9 11.49,5 15.39,5 13.8,0 20,-11.4 26.89,-25 8.5,-16.6 16,-35.9 16,-35.9 0,0 -9.4,52.2 16.3,52.2 9.39,0 18.79,-12.1 23,-18.3 v 0.1 c 0,0 0.2,-0.4 0.7,-1.2 1,-1.5 1.5,-2.4 1.5,-2.4 v -0.3 c 3.8,-6.5 12.1,-21.4 24.59,-46 16.2,-31.8 31.69,-71.5 31.69,-71.5 a 201.24,201.24 0 0 0 6.2,25.8 c 2.8,9.5 8.7,19.9 13.4,30 -3.8,5.2 -6.1,8.2 -6.1,8.2 a 0.31,0.31 0 0 0 0.1,0.2 c -3,4 -6.4,8.3 -9.9,12.5 -12.79,15.2 -28,32.6 -30,37.6 -2.4,5.9 -1.8,10.3 2.8,13.7 3.4,2.6 9.4,3 15.69,2.5 11.5,-0.8 19.6,-3.6 23.5,-5.4 a 82.2,82.2 0 0 0 20.19,-10.6 c 12.5,-9.2 20.1,-22.4 19.4,-39.8 -0.4,-9.6 -3.5,-19.2 -7.3,-28.2 1.1,-1.6 2.3,-3.3 3.4,-5 19.79,-28.9 35.09,-60.62 35.09,-60.62 a 201.24,201.24 0 0 0 6.2,25.8 c 2.4,8.1 7.09,17 11.39,25.7 -18.59,15.1 -30.09,32.6 -34.09,44.1 -7.4,21.3 -1.6,30.9 9.3,33.1 4.9,1 11.9,-1.3 17.1,-3.5 a 79.46,79.46 0 0 0 21.59,-11.1 c 12.5,-9.2 24.59,-22.1 23.79,-39.6 -0.3,-7.9 -2.5,-15.8 -5.4,-23.4 15.7,-6.6 36.09,-10.2 62.09,-7.2 55.68,6.5 66.58,41.3 64.48,55.8 -2.1,14.5 -13.8,22.6 -17.7,25 -3.9,2.4 -5.1,3.3 -4.8,5.1 0.5,2.6 2.3,2.5 5.6,1.9 4.6,-0.8 29.19,-11.8 30.29,-38.7 1.6,-34 -31.09,-71.4 -89,-71.1 z m -429.18,144.7 c -18.39,20.1 -44.190003,27.7 -55.280003,21.3 -11.9,-6.92 -7.2,-36.5 15.49,-57.92 13.8,-13 31.590003,-25 43.390003,-32.4 2.7,-1.6 6.6,-4 11.4,-6.9 0.8,-0.5 1.2,-0.7 1.2,-0.7 0.9,-0.6 1.9,-1.1 2.9,-1.7 8.29,30.4 0.3,57.2 -19.1,78.3 z m 134.36,-91.4 c -6.4,15.7 -19.89,55.7 -28.09,53.6 -7,-1.8 -11.3,-32.3 -1.4,-62.3 5,-15.1 15.6,-33.1 21.9,-40.1 10.09,-11.3 21.19,-14.9 23.79,-10.4 3.5,5.9 -12.2,49.4 -16.2,59.2 z m 111,53 c -2.7,1.4 -5.2,2.3 -6.4,1.6 -0.9,-0.5 1.1,-2.4 1.1,-2.4 0,0 13.9,-14.9 19.4,-21.7 3.2,-4 6.9,-8.7 10.89,-13.9 0,0.5 0.1,1 0.1,1.6 -0.13,17.9 -17.32,30 -25.12,34.8 z m 85.58,-19.5 c -2,-1.4 -1.7,-6.1 5,-20.7 2.6,-5.7 8.59,-15.3 19,-24.5 a 36.18,36.18 0 0 1 1.9,10.8 c -0.1,22.5 -16.2,30.9 -25.89,34.4 z"
     id="path2"
     style="fill:#ff0067;fill-opacity:1" />
</svg>
