<?xml version="1.0" encoding="UTF-8" standalone="no"?>
<svg
   width="15.000382"
   height="10"
   preserveAspectRatio="xMidYMid"
   viewBox="0 0 15.000382 10"
   style="-ms-transform:rotate(360deg);-webkit-transform:rotate(360deg)"
   version="1.1"
   id="svg4"
   sodipodi:docname="tailwind_hover.svg"
   inkscape:version="1.2.1 (9c6d41e410, 2022-07-14)"
   xmlns:inkscape="http://www.inkscape.org/namespaces/inkscape"
   xmlns:sodipodi="http://sodipodi.sourceforge.net/DTD/sodipodi-0.dtd"
   xmlns="http://www.w3.org/2000/svg"
   xmlns:svg="http://www.w3.org/2000/svg">
  <defs
     id="defs8" />
  <sodipodi:namedview
     id="namedview6"
     pagecolor="#ffffff"
     bordercolor="#000000"
     borderopacity="0.25"
     inkscape:showpageshadow="2"
     inkscape:pageopacity="0.0"
     inkscape:pagecheckerboard="0"
     inkscape:deskcolor="#d1d1d1"
     showgrid="false"
     inkscape:zoom="55.9"
     inkscape:cx="7.5044723"
     inkscape:cy="8.5062612"
     inkscape:window-width="1440"
     inkscape:window-height="900"
     inkscape:window-x="1366"
     inkscape:window-y="0"
     inkscape:window-maximized="1"
     inkscape:current-layer="svg4" />
  <path
     fill="currentColor"
     d="m 7.500191,0 c -1.026,0 -1.908,0.277 -2.6,0.87 -0.688,0.59 -1.137,1.447 -1.387,2.516 a 0.5,0.5 0 0 0 0.897,0.4 c 0.316,-0.452 0.632,-0.723 0.936,-0.863 0.294,-0.135 0.611,-0.162 0.975,-0.065 0.366,0.098 0.65,0.386 1.095,0.87 l 0.015,0.016 c 0.336,0.365 0.745,0.81 1.305,1.156 0.582,0.359 1.305,0.6 2.264,0.6 1.026,0 1.908,-0.277 2.6,-0.87 0.688,-0.59 1.138,-1.447 1.387,-2.516 a 0.5,0.5 0 0 0 -0.897,-0.4 c -0.316,0.452 -0.632,0.723 -0.936,0.863 -0.294,0.135 -0.611,0.162 -0.975,0.065 -0.366,-0.098 -0.65,-0.386 -1.095,-0.87 l -0.015,-0.016 c -0.336,-0.365 -0.745,-0.81 -1.305,-1.156 -0.582,-0.359 -1.305,-0.6 -2.264,-0.6 z m -3.5,4.5 c -1.026,0 -1.908,0.277 -2.6,0.87 C 0.71219101,5.96 0.26319101,6.817 0.01319101,7.886 a 0.5,0.5 0 0 0 0.897,0.4 C 1.226191,7.834 1.542191,7.563 1.846191,7.423 c 0.294,-0.135 0.611,-0.162 0.975,-0.065 0.366,0.098 0.65,0.386 1.095,0.87 l 0.015,0.016 c 0.336,0.365 0.745,0.81 1.305,1.156 0.582,0.359 1.305,0.6 2.264,0.6 1.026,0 1.908,-0.277 2.6,-0.87 0.688,-0.59 1.138,-1.447 1.387,-2.516 a 0.5,0.5 0 0 0 -0.897,-0.4 c -0.316,0.452 -0.632,0.723 -0.936,0.863 -0.294,0.135 -0.611,0.162 -0.975,0.065 -0.366,-0.098 -0.65,-0.386 -1.095,-0.87 l -0.015,-0.016 c -0.335,-0.365 -0.745,-0.81 -1.305,-1.156 -0.582,-0.36 -1.305,-0.6 -2.264,-0.6 z"
     id="path2"
     style="fill:#00d2c8;fill-opacity:1" />
</svg>
