<?xml version="1.0" encoding="UTF-8" standalone="no"?>
<svg
   viewBox="0 0 496 496"
   version="1.1"
   id="svg4"
   sodipodi:docname="wordpress.svg"
   width="496"
   height="496"
   xmlns:inkscape="http://www.inkscape.org/namespaces/inkscape"
   xmlns:sodipodi="http://sodipodi.sourceforge.net/DTD/sodipodi-0.dtd"
   xmlns="http://www.w3.org/2000/svg"
   xmlns:svg="http://www.w3.org/2000/svg">
  <defs
     id="defs8" />
  <sodipodi:namedview
     id="namedview6"
     pagecolor="#ffffff"
     bordercolor="#000000"
     borderopacity="0.25"
     inkscape:showpageshadow="2"
     inkscape:pageopacity="0.0"
     inkscape:pagecheckerboard="0"
     inkscape:deskcolor="#d1d1d1"
     showgrid="false" />
  <!--! Font Awesome Free 6.1.2 by @fontawesome - https://fontawesome.com License - https://fontawesome.com/license/free (Icons: CC BY 4.0, Fonts: SIL OFL 1.1, Code: MIT License) Copyright 2022 Fonticons, Inc. -->
  <path
     d="m 53.7,161.4 101.5,278 C 84.2,405 35.3,332.2 35.3,248 c 0,-30.9 6.6,-60.1 18.4,-86.6 z m 337.9,75.9 c 0,-26.3 -9.4,-44.5 -17.5,-58.7 -10.8,-17.5 -20.9,-32.4 -20.9,-49.9 0,-19.6 14.8,-37.8 35.7,-37.8 0.9,0 1.8,0.1 2.8,0.2 C 353.8,56.4 303.4,35.2 248,35.2 c -74.3,0 -139.7,38.1 -177.8,95.9 5,0.2 9.7,0.3 13.7,0.3 22.2,0 56.7,-2.7 56.7,-2.7 11.5,-0.7 12.8,16.2 1.4,17.5 0,0 -11.5,1.3 -24.3,2 L 195.2,378.6 241.8,239 208.7,148.2 c -11.5,-0.7 -22.3,-2 -22.3,-2 -11.5,-0.7 -10.1,-18.2 1.3,-17.5 0,0 35.1,2.7 56,2.7 22.2,0 56.7,-2.7 56.7,-2.7 11.5,-0.7 12.8,16.2 1.4,17.5 0,0 -11.5,1.3 -24.3,2 l 76.9,228.7 21.2,-70.9 c 9,-29.4 16,-50.5 16,-68.7 z m -139.9,29.3 -63.8,185.5 c 19.1,5.6 39.2,8.7 60.1,8.7 24.8,0 48.5,-4.3 70.6,-12.1 -0.6,-0.9 -1.1,-1.9 -1.5,-2.9 z m 183,-120.7 c 0.9,6.8 1.4,14 1.4,21.9 0,21.6 -4,45.8 -16.2,76.2 l -65,187.9 C 418.2,395 460.7,326.5 460.7,248 c 0,-37 -9.4,-71.8 -26,-102.1 z M 496,248 C 496,384.8 384.7,496 248,496 111.2,496 0,384.7 0,248 0,111.2 111.2,0 248,0 384.7,0 496,111.2 496,248 Z m -11.4,0 C 484.6,117.5 378.4,11.4 248,11.4 117.5,11.4 11.4,117.5 11.4,248 11.4,378.5 117.6,484.6 248,484.6 378.5,484.6 484.6,378.5 484.6,248 Z"
     id="path2"
     style="fill:#008aff;fill-opacity:1" />
</svg>
